<?xml version="1.0" standalone="no"?>
<!DOCTYPE svg PUBLIC "-//W3C//DTD SVG 20010904//EN"
 "http://www.w3.org/TR/2001/REC-SVG-20010904/DTD/svg10.dtd">
<svg version="1.0" xmlns="http://www.w3.org/2000/svg"
 width="806.000000pt" height="599.000000pt" viewBox="0 0 806.000000 599.000000"
 preserveAspectRatio="xMidYMid meet">

<g transform="translate(0.000000,599.000000) scale(0.100000,-0.100000)"
fill="#000000" stroke="none">
<path d="M1556 5979 c-105 -25 -229 -126 -280 -228 -25 -50 -73 -191 -105
-311 -34 -127 -83 -351 -78 -356 2 -3 51 0 108 6 182 19 465 23 672 11 110 -7
200 -11 203 -9 2 2 -7 118 -20 258 -27 282 -41 339 -113 447 -42 64 -171 166
-231 183 -44 12 -102 12 -156 -1z"/>
<path d="M6339 5977 c-49 -19 -163 -101 -198 -145 -44 -52 -89 -141 -106 -208
-15 -61 -60 -523 -51 -531 2 -3 81 0 174 6 229 15 411 14 626 -4 99 -8 182
-13 184 -10 8 7 -89 395 -129 520 -47 141 -86 210 -154 273 -99 89 -253 134
-346 99z"/>
<path d="M1505 5039 c-106 -9 -237 -46 -340 -95 l-75 -35 0 -44 c0 -41 -2 -44
-32 -50 -45 -10 -58 -22 -84 -81 -12 -28 -61 -109 -107 -180 -135 -205 -217
-361 -293 -557 -35 -90 -85 -260 -83 -287 0 -8 13 32 29 90 35 131 73 226 157
396 51 103 69 131 82 127 12 -4 13 -3 3 5 -15 11 6 50 117 216 39 58 81 129
94 158 13 30 31 61 40 70 10 10 58 22 131 33 104 16 116 16 130 2 9 -9 16 -18
16 -22 0 -3 11 -21 25 -39 14 -18 25 -36 25 -40 0 -3 11 -19 24 -34 13 -15 51
-61 84 -102 l60 -75 -61 -8 c-240 -33 -428 -124 -583 -282 -135 -137 -216
-291 -256 -485 -25 -118 -20 -292 12 -415 23 -92 81 -219 138 -302 166 -244
457 -400 750 -404 59 -1 112 -5 117 -10 20 -16 161 -57 215 -62 48 -6 43 -3
-35 17 -49 13 -108 30 -130 39 l-40 15 50 7 c78 12 223 62 304 106 55 30 71
35 66 22 -57 -136 -75 -223 -75 -363 0 -109 15 -206 45 -289 11 -32 12 -48 5
-55 -13 -13 -306 -15 -385 -4 l-50 7 35 -16 c39 -18 267 -24 370 -11 l55 8 22
-40 c13 -22 19 -41 13 -45 -16 -10 -213 -72 -280 -88 -157 -38 -197 -42 -410
-41 -228 0 -289 9 -452 65 -122 42 -313 156 -439 261 -75 62 -192 196 -264
301 l-55 82 11 58 12 57 30 -58 c16 -31 66 -111 111 -177 313 -463 783 -641
1341 -508 60 14 115 30 120 36 7 7 4 8 -8 3 -10 -3 -76 -9 -145 -12 -252 -13
-549 55 -766 176 -251 138 -418 321 -581 635 l-56 108 12 54 c7 29 15 53 19
53 3 0 26 -42 50 -92 224 -468 522 -735 915 -819 113 -24 301 -38 291 -21 -4
7 -17 12 -28 12 -31 0 -202 43 -209 53 -3 4 -12 5 -21 2 -12 -5 -93 28 -160
65 -10 6 -23 10 -29 10 -6 0 -30 14 -54 30 -24 17 -48 30 -54 30 -6 0 -11 5
-11 10 0 6 -6 10 -13 10 -7 0 -23 10 -37 23 -14 13 -46 37 -71 54 -25 18 -85
74 -133 125 -140 149 -231 293 -335 533 -12 28 -31 69 -43 92 l-21 42 46 148
c57 181 87 293 86 313 0 8 -13 -30 -28 -85 -16 -55 -47 -158 -69 -230 -92
-292 -178 -677 -291 -1295 -49 -270 -75 -619 -69 -920 5 -189 7 -214 36 -323
71 -272 181 -448 349 -558 170 -111 384 -162 533 -128 25 6 87 30 137 54 230
108 415 284 538 510 21 39 52 87 67 107 16 21 27 42 23 48 -3 5 -1 10 6 10 7
0 9 3 6 7 -4 3 2 20 13 38 11 18 17 35 13 38 -3 4 -1 7 5 7 7 0 11 3 10 8 -1
9 1 15 62 162 27 63 57 138 69 165 11 28 29 69 40 92 12 23 21 47 21 53 0 6 7
22 16 35 9 13 13 29 9 35 -3 5 -1 10 5 10 6 0 8 5 5 10 -3 5 -1 10 5 10 7 0
10 7 6 15 -3 8 -1 15 5 15 5 0 9 6 8 13 -1 6 1 19 4 27 3 8 10 31 16 50 16 59
63 184 77 204 17 24 65 56 76 50 4 -3 8 -1 8 3 0 24 48 6 108 -39 140 -107
295 -158 475 -158 174 0 334 55 463 158 l59 48 183 -2 c101 -1 186 -4 189 -8
11 -11 761 -7 768 4 4 6 77 10 186 10 l179 0 61 -49 c132 -106 290 -161 466
-161 189 0 336 51 496 174 55 42 92 64 100 59 6 -4 14 -8 17 -9 3 0 25 -6 49
-13 23 -7 50 -10 58 -7 8 4 67 -12 132 -33 211 -72 276 -84 461 -85 166 -1
239 9 359 50 81 27 189 82 253 127 89 64 266 248 353 367 70 95 83 117 199
333 26 48 52 85 57 81 5 -3 9 -3 9 -1 0 4 -49 225 -53 240 -1 4 -52 -29 -112
-74 -202 -149 -330 -215 -559 -290 -185 -61 -262 -69 -679 -69 l-364 0 -12 71
c-6 39 -22 102 -36 140 -13 38 -20 71 -15 74 5 3 38 -9 72 -26 145 -73 267
-101 439 -100 169 1 314 38 456 117 147 82 293 231 370 379 31 60 55 86 160
178 77 67 125 103 128 95 31 -93 85 -274 85 -284 0 -19 -113 -127 -195 -188
-184 -136 -375 -229 -580 -280 -51 -13 -197 -29 -350 -39 -22 -1 18 -6 89 -11
145 -10 247 0 415 40 235 55 437 163 608 325 l54 51 -42 142 c-23 77 -56 187
-73 244 -20 66 -33 97 -38 88 -9 -17 -168 -149 -173 -144 -1 1 3 37 11 78 19
106 17 213 -5 327 -21 109 -74 250 -119 316 l-29 44 26 22 c14 13 36 32 48 43
l22 20 21 -42 c12 -23 41 -92 65 -153 25 -62 45 -106 45 -99 0 24 -86 235
-143 349 -70 138 -144 265 -214 365 -29 42 -63 99 -75 125 -33 76 -54 100 -93
107 -33 7 -35 9 -35 46 0 47 -22 65 -134 110 -130 52 -241 72 -406 71 -158 0
-280 -18 -381 -53 l-64 -23 -3 -66 -3 -67 -40 -6 c-24 -4 -58 -20 -81 -39
l-40 -32 -222 -3 c-183 -2 -223 -5 -233 -18 -10 -13 -14 -12 -37 10 l-25 26
-1270 0 -1269 0 -30 -25 c-24 -20 -31 -22 -36 -10 -4 13 -38 15 -215 15 -219
0 -244 4 -293 45 -16 14 -47 28 -69 31 l-39 7 0 58 c0 49 -4 60 -22 74 -79 55
-346 91 -553 74z m328 -221 c32 -22 44 -23 27 -3 -10 12 -10 15 3 15 8 0 20
-7 27 -15 7 -8 17 -15 22 -15 6 0 4 7 -3 16 -12 15 -8 16 51 10 142 -15 184
-27 239 -64 l53 -37 216 -3 c163 -3 218 -7 229 -17 11 -11 13 -135 13 -675 0
-729 -3 -694 63 -744 18 -14 51 -29 72 -34 l38 -8 -49 -32 c-65 -42 -48 -41
30 3 43 24 76 35 102 35 l39 0 -63 -34 c-35 -19 -68 -39 -75 -44 -7 -5 -70
-12 -142 -15 -138 -5 -200 -20 -318 -76 -32 -15 -56 -25 -55 -22 2 3 18 34 35
68 18 34 45 102 60 150 24 80 27 103 27 258 1 183 -7 228 -61 363 -80 201
-257 395 -448 489 -112 56 -291 103 -390 103 -27 0 -41 9 -75 48 -74 84 -213
273 -205 280 10 10 197 19 365 18 121 -1 151 -4 173 -18z m4820 12 c168 -10
260 -21 349 -41 46 -11 49 -14 79 -77 17 -36 69 -122 114 -191 46 -69 109
-175 140 -234 l58 -109 -49 -42 -48 -42 -47 56 c-125 150 -296 258 -498 312
-112 30 -333 31 -452 1 -213 -54 -407 -183 -540 -358 -53 -70 -124 -217 -149
-306 -48 -178 -41 -411 18 -568 5 -12 -14 -13 -119 -8 -113 6 -232 22 -252 34
-4 2 7 14 24 26 18 12 40 38 50 57 18 33 19 71 19 693 0 537 2 661 13 672 11
10 66 14 229 17 l216 3 53 37 c63 43 122 56 304 67 177 12 300 12 488 1z
m-2453 -1610 l35 -29 -35 9 c-19 6 -57 19 -85 29 l-50 20 50 1 c42 0 57 -5 85
-30z m433 -11 c20 -22 42 -55 51 -72 13 -27 16 -29 16 -10 0 31 -18 74 -42
101 l-21 22 39 0 c37 0 42 -4 87 -68 26 -37 64 -86 85 -108 l39 -41 -53 -41
-54 -42 -32 43 c-17 23 -53 60 -80 82 -30 26 -46 46 -44 57 2 10 0 21 -5 24
-5 3 -9 0 -9 -5 0 -6 -6 -11 -13 -11 -11 0 -57 86 -57 105 0 3 13 5 29 5 22 0
38 -10 64 -41z m639 7 c91 -30 191 -51 349 -71 40 -5 48 -10 63 -42 9 -19 15
-37 13 -39 -2 -3 -31 9 -64 25 -176 87 -413 94 -602 18 l-61 -25 -45 36 c-25
19 -45 39 -45 43 0 5 -6 9 -13 9 -7 0 -31 18 -52 40 l-39 40 197 0 196 0 103
-34z m-581 -253 c18 -27 36 -49 41 -51 4 -2 -4 -19 -17 -37 -31 -39 -48 -37
-90 13 -21 25 -30 46 -30 72 0 27 3 36 12 33 7 -3 13 0 13 6 0 6 9 11 20 11
12 0 31 -18 51 -47z m-1091 -378 c61 -25 139 -60 173 -77 l62 -33 -15 -62
c-15 -59 -17 -62 -35 -49 -48 32 -126 71 -195 96 l-75 28 -12 48 c-7 27 -15
59 -18 72 -3 12 -3 22 0 22 2 0 54 -20 115 -45z m441 -116 c48 -16 69 -38 69
-69 0 -30 -23 -56 -40 -45 -5 3 -10 24 -10 46 0 21 -4 39 -10 39 -5 0 -10 -24
-10 -52 l0 -53 52 3 c57 3 90 -10 73 -27 -6 -6 -37 -20 -69 -31 -54 -18 -62
-19 -89 -5 -17 8 -44 15 -61 15 -39 0 -65 15 -51 29 6 6 28 17 50 24 l40 14 3
61 c2 34 7 62 11 62 4 0 23 -5 42 -11z m3119 -107 c0 -8 -80 -48 -180 -90
-174 -73 -431 -118 -740 -129 l-186 -6 15 81 15 82 50 0 c28 0 132 -7 231 -15
330 -27 505 -15 690 48 55 19 101 35 103 35 1 1 2 -2 2 -6z m-3360 -139 c156
-85 253 -155 355 -257 90 -90 98 -101 76 -104 -17 -3 -37 9 -75 45 -140 135
-323 245 -524 317 -40 14 -82 26 -92 26 -26 0 -33 15 -26 55 l7 34 96 -35 c54
-19 136 -56 183 -81z m532 0 c46 -65 106 -152 134 -193 56 -86 52 -79 102
-145 60 -79 60 -75 -6 -75 -53 0 -64 4 -92 30 -18 17 -34 30 -37 30 -2 0 5
-13 17 -30 21 -30 21 -30 1 -30 -11 0 -31 11 -45 25 -14 14 -36 25 -49 25 -18
0 -40 19 -85 73 -33 39 -93 107 -133 149 -63 66 -71 78 -54 82 29 7 102 35 91
36 -5 0 -1 10 10 23 32 36 54 75 54 97 0 11 2 20 4 20 3 0 42 -53 88 -117z
m3279 90 c-12 -20 -14 -14 -5 12 4 9 9 14 11 11 3 -2 0 -13 -6 -23z m-3246
-43 c11 0 15 -6 10 -19 -5 -15 -1 -18 20 -13 18 3 25 0 25 -12 0 -9 6 -16 12
-16 14 0 108 -98 108 -112 0 -4 6 -8 13 -8 16 0 41 -33 87 -114 18 -33 53 -83
77 -113 l43 -53 -54 0 -55 0 -62 82 c-71 93 -249 356 -249 368 0 4 -7 13 -15
20 -8 7 -15 18 -15 24 1 6 9 1 19 -11 11 -13 27 -23 36 -23z m3169 -67 c-98
-129 -297 -321 -387 -372 -77 -43 -202 -89 -310 -112 -67 -14 -247 -18 -330
-6 -75 11 -65 21 18 19 36 -1 64 1 64 5 -3 19 3 21 31 11 19 -6 35 -7 43 -1 6
5 30 14 52 20 141 39 278 88 283 102 2 6 11 11 20 11 10 0 34 9 55 20 20 11
44 20 52 20 9 0 19 10 24 22 7 19 8 20 15 3 6 -17 9 -16 34 8 20 20 40 27 70
29 41 1 54 11 30 22 -7 3 -2 3 12 0 20 -4 29 2 45 26 11 16 25 30 30 30 6 0
20 13 32 28 12 15 40 47 63 72 23 25 56 63 73 86 18 23 34 41 36 39 1 -2 -23
-39 -55 -82z"/>
<path d="M2209 4673 c-13 -16 -12 -17 3 -4 10 7 27 11 38 8 11 -3 18 -1 14 4
-9 15 -41 10 -55 -8z"/>
<path d="M2277 4673 c-4 -6 -16 -9 -27 -6 -11 3 -20 0 -20 -6 0 -6 7 -11 15
-11 9 0 20 -11 25 -25 10 -27 40 -35 40 -11 0 8 8 17 18 19 13 4 11 5 -5 6
-15 1 -23 -5 -24 -16 -1 -10 -5 0 -8 22 -3 23 -9 35 -14 28z"/>
<path d="M2300 4668 c0 -12 7 -18 23 -17 15 0 17 2 7 6 -8 3 -18 11 -22 17 -5
7 -8 4 -8 -6z"/>
<path d="M2451 4663 c-2 -40 -12 -55 -27 -42 -8 6 -20 9 -28 6 -8 -3 -16 -3
-18 1 -2 5 -11 0 -20 -10 -17 -17 -17 -18 6 -18 13 0 26 6 29 13 3 10 9 10 26
0 29 -18 61 -16 61 3 0 10 6 14 15 10 8 -3 15 -1 15 4 0 18 -40 11 -41 -7 -1
-10 -5 0 -9 22 -4 22 -8 30 -9 18z"/>
<path d="M2493 4673 c-13 -2 -23 -9 -23 -14 0 -14 37 -11 44 4 3 6 5 -5 3 -25
-2 -21 1 -38 5 -38 4 0 8 18 8 40 0 22 -3 39 -7 39 -5 -1 -18 -4 -30 -6z"/>
<path d="M2585 4673 c-34 -8 -38 -20 -5 -15 16 2 30 8 30 13 0 5 -1 8 -2 8 -2
-1 -12 -3 -23 -6z"/>
<path d="M2400 4650 c0 -5 5 -10 11 -10 5 0 7 5 4 10 -3 6 -8 10 -11 10 -2 0
-4 -4 -4 -10z"/>
<path d="M2204 4638 c-9 -14 16 -38 40 -37 20 1 20 2 1 6 -31 7 -40 21 -11 16
14 -3 26 -1 26 5 0 13 -49 22 -56 10z"/>
<path d="M2550 4631 c0 -4 11 -6 25 -3 14 2 25 6 25 8 0 2 -11 4 -25 4 -14 0
-25 -4 -25 -9z"/>
<path d="M2570 4610 l-35 -7 38 -2 c20 0 37 4 37 9 0 6 -1 9 -2 9 -2 -1 -19
-5 -38 -9z"/>
<path d="M2357 4566 c-83 -30 -97 -63 -97 -234 0 -118 2 -132 23 -163 63 -94
199 -88 249 12 27 51 26 270 -1 319 -32 61 -108 90 -174 66z"/>
<path d="M2623 4523 c9 -2 25 -2 35 0 9 3 1 5 -18 5 -19 0 -27 -2 -17 -5z"/>
<path d="M5428 4683 c7 -3 16 -2 19 1 4 3 -2 6 -13 5 -11 0 -14 -3 -6 -6z"/>
<path d="M5683 4683 c-7 -2 -13 -9 -13 -14 0 -5 9 -4 20 3 16 10 24 10 43 -1
20 -13 21 -13 8 2 -13 17 -34 20 -58 10z"/>
<path d="M5855 4680 c-4 -6 -11 -8 -16 -5 -5 4 -9 -10 -9 -29 0 -20 -4 -36 -9
-36 -6 0 -8 17 -5 38 5 35 4 36 -8 14 -8 -12 -18 -19 -22 -15 -5 4 -1 -4 9
-19 19 -30 40 -36 48 -14 3 9 15 12 31 9 15 -3 26 -1 26 5 0 6 -10 12 -22 14
-12 2 -23 9 -25 15 -7 20 50 -13 59 -34 5 -13 7 -10 7 13 1 16 -4 35 -11 42
-15 15 -45 16 -53 2z m49 -9 c3 -4 -6 -6 -19 -3 -14 2 -25 6 -25 8 0 8 39 4
44 -5z"/>
<path d="M5395 4669 c-4 -6 -5 -12 -2 -15 2 -3 7 2 10 11 7 17 1 20 -8 4z"/>
<path d="M5465 4666 c2 -6 6 -23 9 -38 7 -29 36 -39 36 -13 0 8 9 15 20 15 11
0 23 7 26 15 10 25 24 17 24 -15 0 -20 5 -30 15 -30 10 0 15 10 15 29 0 16 6
32 13 34 7 3 6 6 -5 6 -12 1 -18 -9 -21 -31 l-4 -33 -1 31 c-2 35 -21 45 -66
37 -19 -4 -25 -10 -22 -22 3 -9 1 -23 -4 -31 -7 -11 -10 -6 -10 21 0 24 -5 36
-14 36 -8 0 -13 -5 -11 -11z m85 -11 c0 -8 -4 -15 -10 -15 -5 0 -7 7 -4 15 4
8 8 15 10 15 2 0 4 -7 4 -15z"/>
<path d="M5648 4642 c-2 -23 -1 -42 3 -42 12 0 20 50 10 67 -6 12 -10 6 -13
-25z"/>
<path d="M5760 4665 c-3 -24 0 -58 6 -64 8 -9 9 5 3 44 -3 22 -7 31 -9 20z"/>
<path d="M5417 4664 c-4 -4 -7 -16 -7 -26 0 -14 6 -19 23 -16 14 2 22 10 22
23 0 20 -25 32 -38 19z"/>
<path d="M5681 4643 c-10 -21 -9 -28 1 -34 21 -14 44 -10 59 8 12 14 12 16 0
8 -11 -6 -13 -4 -8 7 6 17 -10 38 -28 38 -7 0 -17 -12 -24 -27z m35 -31 c-10
-2 -22 0 -28 6 -6 6 0 7 19 4 21 -5 23 -7 9 -10z"/>
<path d="M5390 4634 c0 -27 60 -48 74 -25 3 4 -6 6 -21 3 -18 -3 -30 1 -40 13
-7 11 -13 14 -13 9z"/>
<path d="M5858 4608 c6 -6 18 -8 28 -6 14 3 12 5 -9 10 -19 3 -25 2 -19 -4z"/>
<path d="M5607 4566 c-83 -30 -97 -63 -97 -234 0 -118 2 -132 23 -163 63 -94
199 -88 249 12 27 51 26 270 -1 319 -32 61 -108 90 -174 66z"/>
<path d="M4600 2940 c0 -5 5 -10 10 -10 6 0 10 5 10 10 0 6 -4 10 -10 10 -5 0
-10 -4 -10 -10z"/>
<path d="M3951 2319 c-13 -5 -21 -12 -18 -15 9 -9 57 5 57 16 0 12 -7 12 -39
-1z"/>
<path d="M4073 2318 c-18 -6 -33 -15 -33 -20 0 -5 10 -6 23 -2 43 13 67 24 67
29 0 7 -20 5 -57 -7z"/>
<path d="M4244 2267 c-8 -21 2 -35 16 -21 5 5 6 15 0 24 -8 12 -10 12 -16 -3z"/>
<path d="M4270 2220 c0 -5 4 -10 9 -10 5 0 12 -11 15 -25 7 -27 26 -34 26 -9
0 8 -4 13 -9 10 -5 -3 -12 5 -15 19 -6 24 -26 36 -26 15z"/>
<path d="M4250 2183 c0 -12 5 -25 10 -28 13 -8 13 15 0 35 -8 12 -10 11 -10
-7z"/>
<path d="M4220 2140 c13 -11 25 -20 28 -20 3 0 -3 9 -13 20 -10 11 -23 20 -28
20 -6 0 0 -9 13 -20z"/>
<path d="M4320 2136 c0 -9 5 -16 10 -16 6 0 10 4 10 9 0 6 -4 13 -10 16 -5 3
-10 -1 -10 -9z"/>
<path d="M4270 2132 c0 -12 19 -26 26 -19 2 2 -2 10 -11 17 -9 8 -15 8 -15 2z"/>
<path d="M4296 2084 c-5 -14 -4 -15 9 -4 17 14 19 20 6 20 -5 0 -12 -7 -15
-16z"/>
<path d="M786 4297 c3 -10 9 -15 12 -12 3 3 0 11 -7 18 -10 9 -11 8 -5 -6z"/>
<path d="M7531 3834 c0 -11 3 -14 6 -6 3 7 2 16 -1 19 -3 4 -6 -2 -5 -13z"/>
<path d="M7541 3794 c0 -11 3 -14 6 -6 3 7 2 16 -1 19 -3 4 -6 -2 -5 -13z"/>
<path d="M7551 3754 c0 -11 3 -14 6 -6 3 7 2 16 -1 19 -3 4 -6 -2 -5 -13z"/>
<path d="M7562 3710 c0 -14 2 -19 5 -12 2 6 2 18 0 25 -3 6 -5 1 -5 -13z"/>
<path d="M471 3634 c-7 -30 -11 -57 -8 -60 2 -2 9 21 16 52 7 30 11 57 8 60
-2 2 -9 -21 -16 -52z"/>
<path d="M7571 3664 c0 -11 3 -14 6 -6 3 7 2 16 -1 19 -3 4 -6 -2 -5 -13z"/>
<path d="M7581 3624 c0 -11 3 -14 6 -6 3 7 2 16 -1 19 -3 4 -6 -2 -5 -13z"/>
<path d="M7592 3580 c0 -14 2 -19 5 -12 2 6 2 18 0 25 -3 6 -5 1 -5 -13z"/>
<path d="M7601 3534 c0 -11 3 -14 6 -6 3 7 2 16 -1 19 -3 4 -6 -2 -5 -13z"/>
<path d="M7611 3494 c0 -11 3 -14 6 -6 3 7 2 16 -1 19 -3 4 -6 -2 -5 -13z"/>
<path d="M7771 2944 c0 -11 3 -14 6 -6 3 7 2 16 -1 19 -3 4 -6 -2 -5 -13z"/>
<path d="M7781 2904 c0 -11 3 -14 6 -6 3 7 2 16 -1 19 -3 4 -6 -2 -5 -13z"/>
<path d="M7851 2594 c0 -11 3 -14 6 -6 3 7 2 16 -1 19 -3 4 -6 -2 -5 -13z"/>
<path d="M7862 2550 c0 -14 2 -19 5 -12 2 6 2 18 0 25 -3 6 -5 1 -5 -13z"/>
<path d="M1350 2517 c20 -20 142 -86 183 -98 117 -36 301 -68 314 -55 4 3 -4
6 -16 6 -41 0 -223 41 -294 65 -39 14 -100 41 -136 61 -36 20 -59 29 -51 21z"/>
<path d="M7872 2500 c0 -14 2 -19 5 -12 2 6 2 18 0 25 -3 6 -5 1 -5 -13z"/>
<path d="M7881 2454 c0 -11 3 -14 6 -6 3 7 2 16 -1 19 -3 4 -6 -2 -5 -13z"/>
<path d="M7891 2404 c0 -11 3 -14 6 -6 3 7 2 16 -1 19 -3 4 -6 -2 -5 -13z"/>
<path d="M7901 2354 c0 -11 3 -14 6 -6 3 7 2 16 -1 19 -3 4 -6 -2 -5 -13z"/>
<path d="M1270 2325 c0 -9 136 -70 210 -95 83 -27 192 -50 233 -49 18 0 -15
11 -73 24 -138 32 -284 81 -362 122 -5 2 -8 1 -8 -2z"/>
<path d="M7912 2300 c0 -14 2 -19 5 -12 2 6 2 18 0 25 -3 6 -5 1 -5 -13z"/>
<path d="M7922 2250 c0 -14 2 -19 5 -12 2 6 2 18 0 25 -3 6 -5 1 -5 -13z"/>
<path d="M7922 2204 c-6 -12 -19 -44 -28 -70 -36 -110 -108 -258 -158 -328
-138 -193 -431 -380 -691 -441 -106 -25 -266 -35 -387 -24 -192 16 -317 50
-487 130 -57 27 -108 46 -114 42 -6 -4 -8 0 -4 10 4 11 1 17 -8 17 -16 0 1
-52 54 -165 16 -33 39 -84 51 -112 13 -29 28 -53 34 -53 6 0 5 5 -2 12 -7 7
-12 20 -12 29 0 15 11 14 98 -13 53 -17 134 -40 180 -53 45 -12 85 -25 90 -30
8 -9 -305 0 -330 10 -13 5 -15 2 -11 -14 3 -12 10 -21 16 -21 6 0 8 -3 4 -6
-3 -3 3 -26 14 -51 11 -26 21 -55 24 -67 2 -12 4 -21 5 -21 1 0 3 -8 5 -18 2
-10 10 -26 19 -35 18 -20 36 -66 43 -107 6 -36 30 -85 42 -85 10 0 47 -81 43
-95 -2 -5 0 -7 4 -2 4 4 25 -26 47 -65 134 -248 345 -440 593 -538 141 -57
300 -49 472 22 284 118 442 348 518 753 14 76 16 127 10 325 -10 339 -33 665
-44 630 -8 -22 -148 -197 -215 -266 -37 -40 -64 -60 -75 -58 -10 3 -34 -11
-57 -32 -46 -41 -95 -69 -95 -54 0 5 5 10 11 10 19 0 183 146 229 204 14 18
14 19 -5 8 -11 -6 -56 -40 -100 -76 -72 -59 -254 -176 -297 -192 -30 -11 -20
11 14 30 73 44 337 325 466 497 18 24 46 61 62 83 35 46 35 39 6 186 -19 99
-24 112 -34 94z m-375 -870 c-3 -3 -12 -4 -19 -1 -8 3 -5 6 6 6 11 1 17 -2 13
-5z m-1037 -225 c111 -17 130 -21 125 -29 -2 -4 -28 -3 -57 1 -29 4 -116 13
-193 19 -171 14 -214 36 -50 25 61 -3 139 -11 175 -16z m352 -166 c-40 -2
-103 -2 -140 0 -37 2 -4 3 73 3 77 0 107 -2 67 -3z m-504 -168 c-3 -3 -9 2
-12 12 -6 14 -5 15 5 6 7 -7 10 -15 7 -18z m118 -116 c3 -5 1 -9 -5 -9 -17 0
-41 12 -41 20 0 10 38 1 46 -11z m256 -70 c9 -5 29 -9 45 -10 l28 -1 -25 -7
c-14 -5 -33 -4 -42 1 -9 4 -38 8 -65 9 -26 0 -66 7 -88 14 -38 13 -36 14 45 8
47 -3 93 -9 102 -14z"/>
<path d="M7982 1930 c0 -14 2 -19 5 -12 2 6 2 18 0 25 -3 6 -5 1 -5 -13z"/>
<path d="M7992 1880 c0 -14 2 -19 5 -12 2 6 2 18 0 25 -3 6 -5 1 -5 -13z"/>
<path d="M8002 1820 c0 -14 2 -19 5 -12 2 6 2 18 0 25 -3 6 -5 1 -5 -13z"/>
<path d="M5870 1800 c0 -6 7 -10 15 -10 8 0 15 2 15 4 0 2 -7 6 -15 10 -8 3
-15 1 -15 -4z"/>
<path d="M5930 1778 c14 -7 29 -18 33 -25 4 -7 13 -13 20 -13 19 0 -26 37 -53
44 l-25 6 25 -12z"/>
<path d="M5990 1705 c0 -5 5 -17 10 -25 5 -8 10 -10 10 -5 0 6 -5 17 -10 25
-5 8 -10 11 -10 5z"/>
<path d="M6020 1606 c0 -8 4 -17 9 -20 5 -4 7 3 4 14 -6 23 -13 26 -13 6z"/>
</g>
</svg>
