<?xml version="1.0" standalone="no"?>
<!DOCTYPE svg PUBLIC "-//W3C//DTD SVG 20010904//EN"
 "http://www.w3.org/TR/2001/REC-SVG-20010904/DTD/svg10.dtd">
<svg version="1.0" xmlns="http://www.w3.org/2000/svg"
 width="1261.000000pt" height="630.000000pt" viewBox="0 0 1261.000000 630.000000"
 preserveAspectRatio="xMidYMid meet">

<g transform="translate(0.000000,630.000000) scale(0.100000,-0.100000)"
fill="#000000" stroke="none">
<path d="M1350 6286 c-176 -26 -337 -78 -498 -161 -146 -76 -250 -153 -377
-280 -216 -215 -360 -485 -422 -792 -25 -124 -25 -442 0 -566 62 -308 205
-577 422 -792 60 -60 147 -136 192 -168 174 -124 415 -225 623 -264 135 -24
401 -24 535 1 343 64 655 239 878 493 534 610 507 1520 -63 2092 -217 218
-502 368 -810 426 -118 22 -362 28 -480 11z"/>
<path d="M4510 6286 c-242 -35 -484 -132 -683 -273 -109 -77 -277 -246 -356
-358 -73 -104 -169 -294 -206 -409 -56 -174 -69 -266 -69 -476 0 -210 13 -302
69 -476 37 -115 133 -305 206 -409 79 -112 247 -281 356 -358 174 -124 415
-225 623 -264 135 -24 401 -24 535 1 465 87 859 371 1079 780 268 497 240
1103 -72 1571 -227 339 -580 576 -981 656 -129 26 -375 33 -501 15z"/>
<path d="M7745 6254 c-291 -42 -498 -117 -706 -256 -131 -87 -325 -282 -412
-413 -167 -253 -245 -497 -254 -800 -9 -279 35 -485 157 -730 148 -298 369
-523 662 -675 222 -115 448 -170 700 -170 252 0 453 46 673 155 437 217 734
606 832 1090 27 136 24 434 -5 571 -31 144 -65 242 -132 379 -76 157 -161 275
-290 405 -128 128 -247 214 -405 290 -223 109 -392 150 -635 155 -85 2 -168 1
-185 -1z"/>
<path d="M10905 6220 c-363 -39 -673 -187 -931 -444 -128 -129 -213 -245 -289
-396 -294 -587 -179 -1296 284 -1759 216 -216 472 -356 773 -422 147 -32 399
-37 554 -11 334 58 596 193 835 431 227 228 361 479 426 796 27 137 25 444 -5
581 -137 633 -618 1100 -1244 1208 -112 20 -301 27 -403 16z"/>
</g>
</svg>
